<mxfile host="app.diagrams.net" agent="Mozilla/5.0 (Windows NT 10.0; Win64; x64) AppleWebKit/537.36 (KHTML, like Gecko) Chrome/133.0.0.0 Safari/537.36" version="26.0.16">
  <diagram name="Page-1" id="8yLVa7PwuK61L5OhXS2n">
    <mxGraphModel dx="1059" dy="1027" grid="1" gridSize="10" guides="1" tooltips="1" connect="1" arrows="1" fold="1" page="1" pageScale="1" pageWidth="850" pageHeight="1100" math="0" shadow="0">
      <root>
        <mxCell id="0" />
        <mxCell id="1" parent="0" />
        <mxCell id="mqzs1YPZboXJz0UEr5We-71" value="" style="rounded=0;whiteSpace=wrap;html=1;fillColor=#dae8fc;strokeColor=#6c8ebf;" vertex="1" parent="1">
          <mxGeometry x="1715" y="320" width="430" height="160" as="geometry" />
        </mxCell>
        <mxCell id="mqzs1YPZboXJz0UEr5We-69" value="" style="rounded=0;whiteSpace=wrap;html=1;fillColor=#dae8fc;strokeColor=#6c8ebf;" vertex="1" parent="1">
          <mxGeometry x="1990" y="520" width="560" height="300" as="geometry" />
        </mxCell>
        <mxCell id="mqzs1YPZboXJz0UEr5We-68" value="" style="rounded=0;whiteSpace=wrap;html=1;fillColor=#dae8fc;strokeColor=#6c8ebf;" vertex="1" parent="1">
          <mxGeometry x="1220" y="520" width="700" height="300" as="geometry" />
        </mxCell>
        <mxCell id="mqzs1YPZboXJz0UEr5We-66" value="&lt;span style=&quot;color: rgba(0, 0, 0, 0); font-family: monospace; font-size: 0px; text-align: start; text-wrap-mode: nowrap;&quot;&gt;%3CmxGraphModel%3E%3Croot%3E%3CmxCell%20id%3D%220%22%2F%3E%3CmxCell%20id%3D%221%22%20parent%3D%220%22%2F%3E%3CmxCell%20id%3D%222%22%20value%3D%221.1%22%20style%3D%22text%3Bhtml%3D1%3Balign%3Dcenter%3BverticalAlign%3Dmiddle%3BwhiteSpace%3Dwrap%3Brounded%3D0%3BfontStyle%3D1%3BfontSize%3D16%3B%22%20vertex%3D%221%22%20parent%3D%221%22%3E%3CmxGeometry%20x%3D%221220%22%20y%3D%22520%22%20width%3D%2260%22%20height%3D%2230%22%20as%3D%22geometry%22%2F%3E%3C%2FmxCell%3E%3C%2Froot%3E%3C%2FmxGraphModel%3E&lt;/span&gt;" style="rounded=0;whiteSpace=wrap;html=1;fillColor=#dae8fc;strokeColor=#6c8ebf;" vertex="1" parent="1">
          <mxGeometry x="1670" y="840" width="700" height="250" as="geometry" />
        </mxCell>
        <mxCell id="mqzs1YPZboXJz0UEr5We-65" value="" style="rounded=0;whiteSpace=wrap;html=1;fillColor=#dae8fc;strokeColor=#6c8ebf;" vertex="1" parent="1">
          <mxGeometry x="1220" y="840" width="400" height="250" as="geometry" />
        </mxCell>
        <mxCell id="mqzs1YPZboXJz0UEr5We-32" value="Job Recommendation System" style="whiteSpace=wrap;strokeWidth=2;glass=0;" vertex="1" parent="1">
          <mxGeometry x="1800" y="370" width="260" height="78" as="geometry" />
        </mxCell>
        <mxCell id="mqzs1YPZboXJz0UEr5We-33" value="Retrieve &amp; Process User Data" style="rounded=1;arcSize=20;strokeWidth=2" vertex="1" parent="1">
          <mxGeometry x="1320" y="866" width="230" height="44" as="geometry" />
        </mxCell>
        <mxCell id="mqzs1YPZboXJz0UEr5We-34" value="User Profile" style="rhombus;strokeWidth=2;whiteSpace=wrap;" vertex="1" parent="1">
          <mxGeometry x="1270" y="948" width="120" height="103" as="geometry" />
        </mxCell>
        <mxCell id="mqzs1YPZboXJz0UEr5We-35" value="CV Parsing" style="rhombus;strokeWidth=2;whiteSpace=wrap;" vertex="1" parent="1">
          <mxGeometry x="1460" y="948" width="120" height="103" as="geometry" />
        </mxCell>
        <mxCell id="mqzs1YPZboXJz0UEr5We-36" value="Preprocessing &amp; Feature Extraction" style="rounded=1;arcSize=20;strokeWidth=2" vertex="1" parent="1">
          <mxGeometry x="1406" y="550" width="230" height="78" as="geometry" />
        </mxCell>
        <mxCell id="mqzs1YPZboXJz0UEr5We-37" value="Clean &amp; Structure Data" style="whiteSpace=wrap;strokeWidth=2;" vertex="1" parent="1">
          <mxGeometry x="1279" y="701" width="152" height="59" as="geometry" />
        </mxCell>
        <mxCell id="mqzs1YPZboXJz0UEr5We-38" value="Generate Word Embeddings" style="whiteSpace=wrap;strokeWidth=2;" vertex="1" parent="1">
          <mxGeometry x="1490" y="700" width="198" height="60" as="geometry" />
        </mxCell>
        <mxCell id="mqzs1YPZboXJz0UEr5We-39" value="Extract Key Skills, Job Titles" style="whiteSpace=wrap;strokeWidth=2;" vertex="1" parent="1">
          <mxGeometry x="1751" y="700" width="160" height="60" as="geometry" />
        </mxCell>
        <mxCell id="mqzs1YPZboXJz0UEr5We-40" value="Job Matching &amp; Recommendation" style="rounded=1;arcSize=20;strokeWidth=2" vertex="1" parent="1">
          <mxGeometry x="2180" y="580" width="220" height="78" as="geometry" />
        </mxCell>
        <mxCell id="mqzs1YPZboXJz0UEr5We-41" value="Apply NLP for Matching" style="whiteSpace=wrap;strokeWidth=2;" vertex="1" parent="1">
          <mxGeometry x="2012" y="720" width="168" height="54" as="geometry" />
        </mxCell>
        <mxCell id="mqzs1YPZboXJz0UEr5We-42" value="ML-Based Prediction" style="whiteSpace=wrap;strokeWidth=2;" vertex="1" parent="1">
          <mxGeometry x="2211.5" y="724" width="157" height="54" as="geometry" />
        </mxCell>
        <mxCell id="mqzs1YPZboXJz0UEr5We-43" value="Rank &amp; Score Jobs" style="whiteSpace=wrap;strokeWidth=2;" vertex="1" parent="1">
          <mxGeometry x="2400" y="724" width="140" height="54" as="geometry" />
        </mxCell>
        <mxCell id="mqzs1YPZboXJz0UEr5We-44" value="Personalization &amp; Feedback" style="rounded=1;arcSize=20;strokeWidth=2" vertex="1" parent="1">
          <mxGeometry x="1880" y="880" width="228" height="54" as="geometry" />
        </mxCell>
        <mxCell id="mqzs1YPZboXJz0UEr5We-45" value="User Feedback Collection" style="whiteSpace=wrap;strokeWidth=2;" vertex="1" parent="1">
          <mxGeometry x="1730" y="997" width="202" height="54" as="geometry" />
        </mxCell>
        <mxCell id="mqzs1YPZboXJz0UEr5We-46" value="Adaptive Learning" style="whiteSpace=wrap;strokeWidth=2;" vertex="1" parent="1">
          <mxGeometry x="1980" y="997" width="150" height="54" as="geometry" />
        </mxCell>
        <mxCell id="mqzs1YPZboXJz0UEr5We-47" value="Model Updates" style="whiteSpace=wrap;strokeWidth=2;" vertex="1" parent="1">
          <mxGeometry x="2170" y="997" width="150" height="54" as="geometry" />
        </mxCell>
        <mxCell id="mqzs1YPZboXJz0UEr5We-49" value="Extracts Profile Data" style="curved=1;startArrow=none;endArrow=block;exitX=0.3;exitY=1.01;entryX=0.5;entryY=0;rounded=0;" edge="1" parent="1" source="mqzs1YPZboXJz0UEr5We-33" target="mqzs1YPZboXJz0UEr5We-34">
          <mxGeometry relative="1" as="geometry">
            <Array as="points" />
          </mxGeometry>
        </mxCell>
        <mxCell id="mqzs1YPZboXJz0UEr5We-50" value="Parses Uploaded CV" style="curved=1;startArrow=none;endArrow=block;exitX=0.71;exitY=1.01;entryX=0.5;entryY=0;rounded=0;" edge="1" parent="1" source="mqzs1YPZboXJz0UEr5We-33" target="mqzs1YPZboXJz0UEr5We-35">
          <mxGeometry relative="1" as="geometry">
            <Array as="points" />
          </mxGeometry>
        </mxCell>
        <mxCell id="mqzs1YPZboXJz0UEr5We-51" value="Prepares Data for ML" style="curved=1;startArrow=none;endArrow=block;exitX=0;exitY=0.79;entryX=0.5;entryY=0.01;rounded=0;" edge="1" parent="1" source="mqzs1YPZboXJz0UEr5We-32" target="mqzs1YPZboXJz0UEr5We-36">
          <mxGeometry relative="1" as="geometry">
            <Array as="points" />
          </mxGeometry>
        </mxCell>
        <mxCell id="mqzs1YPZboXJz0UEr5We-52" value="" style="curved=1;startArrow=none;endArrow=block;exitX=0;exitY=0.88;entryX=0.5;entryY=-0.01;rounded=0;" edge="1" parent="1" source="mqzs1YPZboXJz0UEr5We-36" target="mqzs1YPZboXJz0UEr5We-37">
          <mxGeometry relative="1" as="geometry">
            <Array as="points" />
          </mxGeometry>
        </mxCell>
        <mxCell id="mqzs1YPZboXJz0UEr5We-53" value="" style="curved=1;startArrow=none;endArrow=block;exitX=0.5;exitY=1.01;entryX=0.5;entryY=-0.01;rounded=0;" edge="1" parent="1" source="mqzs1YPZboXJz0UEr5We-36" target="mqzs1YPZboXJz0UEr5We-38">
          <mxGeometry relative="1" as="geometry">
            <Array as="points" />
          </mxGeometry>
        </mxCell>
        <mxCell id="mqzs1YPZboXJz0UEr5We-54" value="" style="curved=1;startArrow=none;endArrow=block;exitX=1;exitY=0.86;entryX=0.5;entryY=-0.01;rounded=0;" edge="1" parent="1" source="mqzs1YPZboXJz0UEr5We-36" target="mqzs1YPZboXJz0UEr5We-39">
          <mxGeometry relative="1" as="geometry">
            <Array as="points" />
          </mxGeometry>
        </mxCell>
        <mxCell id="mqzs1YPZboXJz0UEr5We-55" value="Finds Relevant Jobs" style="curved=1;startArrow=none;endArrow=block;exitX=1;exitY=0.79;entryX=0.5;entryY=0.01;rounded=0;" edge="1" parent="1" source="mqzs1YPZboXJz0UEr5We-32" target="mqzs1YPZboXJz0UEr5We-40">
          <mxGeometry x="-0.0537" y="2" relative="1" as="geometry">
            <Array as="points" />
            <mxPoint as="offset" />
          </mxGeometry>
        </mxCell>
        <mxCell id="mqzs1YPZboXJz0UEr5We-56" value="" style="curved=1;startArrow=none;endArrow=block;exitX=0;exitY=0.92;entryX=0.5;entryY=-0.01;rounded=0;" edge="1" parent="1" source="mqzs1YPZboXJz0UEr5We-40" target="mqzs1YPZboXJz0UEr5We-41">
          <mxGeometry relative="1" as="geometry">
            <Array as="points" />
          </mxGeometry>
        </mxCell>
        <mxCell id="mqzs1YPZboXJz0UEr5We-58" value="" style="curved=1;startArrow=none;endArrow=block;exitX=1;exitY=1;entryX=0.5;entryY=-0.01;rounded=0;exitDx=0;exitDy=0;" edge="1" parent="1" source="mqzs1YPZboXJz0UEr5We-40" target="mqzs1YPZboXJz0UEr5We-43">
          <mxGeometry relative="1" as="geometry">
            <Array as="points" />
          </mxGeometry>
        </mxCell>
        <mxCell id="mqzs1YPZboXJz0UEr5We-59" value="Improves Over Time" style="curved=1;startArrow=none;endArrow=block;exitX=0.75;exitY=1;entryX=0.5;entryY=0.01;rounded=0;exitDx=0;exitDy=0;" edge="1" parent="1" source="mqzs1YPZboXJz0UEr5We-32" target="mqzs1YPZboXJz0UEr5We-44">
          <mxGeometry x="-0.2998" y="18" relative="1" as="geometry">
            <Array as="points">
              <mxPoint x="1920" y="640" />
            </Array>
            <mxPoint as="offset" />
          </mxGeometry>
        </mxCell>
        <mxCell id="mqzs1YPZboXJz0UEr5We-60" value="" style="curved=1;startArrow=none;endArrow=block;exitX=0.08;exitY=1.01;entryX=0.5;entryY=-0.01;rounded=0;" edge="1" parent="1" source="mqzs1YPZboXJz0UEr5We-44" target="mqzs1YPZboXJz0UEr5We-45">
          <mxGeometry relative="1" as="geometry">
            <Array as="points" />
          </mxGeometry>
        </mxCell>
        <mxCell id="mqzs1YPZboXJz0UEr5We-61" value="" style="curved=1;startArrow=none;endArrow=block;exitX=0.5;exitY=1.01;entryX=0.5;entryY=-0.01;rounded=0;" edge="1" parent="1" source="mqzs1YPZboXJz0UEr5We-44" target="mqzs1YPZboXJz0UEr5We-46">
          <mxGeometry relative="1" as="geometry">
            <Array as="points" />
          </mxGeometry>
        </mxCell>
        <mxCell id="mqzs1YPZboXJz0UEr5We-62" value="" style="curved=1;startArrow=none;endArrow=block;exitX=0.86;exitY=1.01;entryX=0.5;entryY=-0.01;rounded=0;" edge="1" parent="1" source="mqzs1YPZboXJz0UEr5We-44" target="mqzs1YPZboXJz0UEr5We-47">
          <mxGeometry relative="1" as="geometry">
            <Array as="points" />
          </mxGeometry>
        </mxCell>
        <mxCell id="mqzs1YPZboXJz0UEr5We-70" value="" style="curved=1;startArrow=none;endArrow=block;exitX=0.5;exitY=1.01;entryX=0.5;entryY=0;rounded=0;entryDx=0;entryDy=0;" edge="1" parent="1" source="mqzs1YPZboXJz0UEr5We-40" target="mqzs1YPZboXJz0UEr5We-42">
          <mxGeometry relative="1" as="geometry">
            <Array as="points" />
            <mxPoint x="2290" y="628" as="sourcePoint" />
            <mxPoint x="2290" y="670" as="targetPoint" />
          </mxGeometry>
        </mxCell>
        <mxCell id="mqzs1YPZboXJz0UEr5We-72" value="Text" style="text;html=1;align=center;verticalAlign=middle;whiteSpace=wrap;rounded=0;" vertex="1" parent="1">
          <mxGeometry x="1910" y="790" width="60" height="30" as="geometry" />
        </mxCell>
        <mxCell id="mqzs1YPZboXJz0UEr5We-73" value="1.1" style="text;html=1;align=center;verticalAlign=middle;whiteSpace=wrap;rounded=0;fontStyle=1;fontSize=16;" vertex="1" parent="1">
          <mxGeometry x="1220" y="520" width="60" height="30" as="geometry" />
        </mxCell>
        <mxCell id="mqzs1YPZboXJz0UEr5We-74" value="1" style="text;html=1;align=center;verticalAlign=middle;whiteSpace=wrap;rounded=0;fontStyle=1;fontSize=16;" vertex="1" parent="1">
          <mxGeometry x="1710" y="320" width="60" height="30" as="geometry" />
        </mxCell>
        <mxCell id="mqzs1YPZboXJz0UEr5We-75" value="1.2" style="text;html=1;align=center;verticalAlign=middle;whiteSpace=wrap;rounded=0;fontStyle=1;fontSize=16;" vertex="1" parent="1">
          <mxGeometry x="1990" y="520" width="60" height="30" as="geometry" />
        </mxCell>
        <mxCell id="mqzs1YPZboXJz0UEr5We-76" value="1.3" style="text;html=1;align=center;verticalAlign=middle;whiteSpace=wrap;rounded=0;fontStyle=1;fontSize=16;" vertex="1" parent="1">
          <mxGeometry x="1220" y="840" width="60" height="30" as="geometry" />
        </mxCell>
        <mxCell id="mqzs1YPZboXJz0UEr5We-82" value="" style="curved=1;startArrow=none;endArrow=block;exitX=0.25;exitY=1;rounded=0;exitDx=0;exitDy=0;" edge="1" parent="1" source="mqzs1YPZboXJz0UEr5We-32">
          <mxGeometry x="-0.796" y="-7" relative="1" as="geometry">
            <Array as="points">
              <mxPoint x="1710" y="710" />
              <mxPoint x="1670" y="850" />
            </Array>
            <mxPoint x="1865" y="448" as="sourcePoint" />
            <mxPoint x="1540" y="866" as="targetPoint" />
            <mxPoint y="-1" as="offset" />
          </mxGeometry>
        </mxCell>
        <mxCell id="mqzs1YPZboXJz0UEr5We-77" value="1.4" style="text;html=1;align=center;verticalAlign=middle;whiteSpace=wrap;rounded=0;fontStyle=1;fontSize=16;" vertex="1" parent="1">
          <mxGeometry x="1670" y="840" width="60" height="30" as="geometry" />
        </mxCell>
      </root>
    </mxGraphModel>
  </diagram>
</mxfile>
